<mxfile host="app.diagrams.net" modified="2024-06-06T05:02:55.061Z" agent="Mozilla/5.0 (Macintosh; Intel Mac OS X 10.15; rv:126.0) Gecko/20100101 Firefox/126.0" etag="TnPM6rsMdNCkKkSeCro0" version="24.4.14" type="github">
  <diagram name="Page-1" id="ad52d381-51e7-2e0d-a935-2d0ddd2fd229">
    <mxGraphModel dx="2810" dy="2740" grid="1" gridSize="10" guides="1" tooltips="1" connect="1" arrows="1" fold="1" page="1" pageScale="1" pageWidth="1100" pageHeight="850" background="none" math="0" shadow="0">
      <root>
        <mxCell id="0" />
        <mxCell id="1" parent="0" />
      </root>
    </mxGraphModel>
  </diagram>
</mxfile>
